<svg preserveAspectRatio="none" width="100%" height="100%" overflow="visible" style="display: block;" viewBox="0 0 117.527 131.687" fill="none" xmlns="http://www.w3.org/2000/svg">
<path id="Vector" opacity="0.21" d="M108.348 90.8299L109.112 90.5267C108.975 90.1805 108.622 89.9699 108.252 90.0135L108.348 90.8299ZM72.4401 127.112L71.6324 126.959C71.5703 127.287 71.7128 127.62 71.9931 127.802L72.4401 127.112ZM6.86032 36.91L6.10887 36.5768V36.5768L6.86032 36.91ZM5.86692 92.4189L5.10356 92.7239V92.7239L5.86692 92.4189ZM110.265 95.6631L111.012 96.007V96.007L110.265 95.6631ZM50.0732 23.0038L49.5537 23.6409L73.7131 43.3386L74.2325 42.7014L74.752 42.0643L50.5926 22.3667L50.0732 23.0038ZM74.2325 42.7014L73.4429 42.4728L64.2149 74.3443L65.0045 74.5729L65.7941 74.8015L75.0221 42.9301L74.2325 42.7014ZM65.0045 74.5729V73.7508H35.1419V74.5729V75.3949H65.0045V74.5729ZM35.1419 74.5729L35.9315 74.3443L26.7034 42.4728L25.9138 42.7014L25.1242 42.9301L34.3522 74.8015L35.1419 74.5729ZM25.9138 42.7014L26.4332 43.3386L50.5926 23.6409L50.0732 23.0038L49.5537 22.3667L25.3943 42.0643L25.9138 42.7014ZM108.348 90.8299L108.252 90.0135L78.5526 93.5164L78.6489 94.3328L78.7452 95.1492L108.444 91.6463L108.348 90.8299ZM78.6489 94.3328L77.8412 94.1798L71.6324 126.959L72.4401 127.112L73.2478 127.265L79.4566 94.4858L78.6489 94.3328ZM50.0732 23.0038H50.8952V1.62378H50.0732H49.2511V23.0038H50.0732ZM74.2325 42.7014L74.4716 43.4879L94.7647 37.3191L94.5256 36.5326L94.2865 35.7461L73.9934 41.9149L74.2325 42.7014ZM65.0045 74.5729L64.328 75.04L77.9725 94.7999L78.6489 94.3328L79.3254 93.8657L65.6809 74.1058L65.0045 74.5729ZM35.1419 74.5729L34.4559 74.1199L21.408 93.8798L22.0939 94.3328L22.7799 94.7858L35.8278 75.0259L35.1419 74.5729ZM99.8765 20.8897L99.0987 20.6237L93.7478 36.2666L94.5256 36.5326L95.3034 36.7987L100.654 21.1558L99.8765 20.8897ZM94.5256 36.5326L94.0938 37.2322L114.312 49.7104L114.744 49.0108L115.176 48.3113L94.9573 35.8331L94.5256 36.5326ZM58.7633 0.822039V1.64408C85.1283 1.64408 107.407 21.7512 113.945 49.2013L114.744 49.0108L115.544 48.8204C108.863 20.7688 86.0238 0 58.7633 0V0.822039ZM114.744 49.0108L113.945 49.2013C115.208 54.5078 115.882 60.0864 115.882 65.8433H116.705H117.527C117.527 59.9579 116.837 54.2514 115.544 48.8204L114.744 49.0108ZM25.9138 42.7014L26.1529 41.9149L7.09938 36.1235L6.86032 36.91L6.62125 37.6965L25.6747 43.4879L25.9138 42.7014ZM0.822039 65.8433H1.64408C1.64408 55.5637 3.79349 45.8524 7.61177 37.2433L6.86032 36.91L6.10887 36.5768C2.19756 45.3956 0 55.334 0 65.8433H0.822039ZM6.86032 36.91L7.61177 37.2433C16.9891 16.1001 36.4021 1.64408 58.7633 1.64408V0.822039V0C35.6496 0 15.7057 14.9387 6.10887 36.5768L6.86032 36.91ZM5.86692 92.4189L5.77063 93.2352L21.9976 95.1492L22.0939 94.3328L22.1902 93.5164L5.96321 91.6025L5.86692 92.4189ZM5.86692 92.4189L6.63028 92.1138C3.42718 84.0974 1.64408 75.2061 1.64408 65.8433H0.822039H0C0 75.4153 1.82304 84.5136 5.10356 92.7239L5.86692 92.4189ZM58.7633 130.865V130.043C47.2231 130.043 36.4778 126.196 27.4873 119.57L26.9996 120.232L26.5119 120.894C35.7645 127.713 46.8475 131.687 58.7633 131.687V130.865ZM26.9996 120.232L27.4873 119.57C18.4121 112.883 11.1245 103.362 6.63028 92.1138L5.86692 92.4189L5.10356 92.7239C9.7052 104.241 17.1767 114.014 26.5119 120.894L26.9996 120.232ZM22.0939 94.3328L21.2863 94.4858L26.1919 120.385L26.9996 120.232L27.8073 120.079L22.9016 94.1798L22.0939 94.3328ZM110.265 95.6631L111.03 95.3599L109.112 90.5267L108.348 90.8299L107.584 91.133L109.501 95.9662L110.265 95.6631ZM116.705 65.8433H115.882C115.882 76.473 113.584 86.495 109.519 95.3191L110.265 95.6631L111.012 96.007C115.177 86.9673 117.527 76.7106 117.527 65.8433H116.705ZM110.265 95.6631L109.519 95.3191C102.314 110.959 89.5685 122.818 74.2432 127.657L74.4907 128.441L74.7382 129.225C90.5534 124.231 103.635 112.019 111.012 96.007L110.265 95.6631ZM74.4907 128.441L74.2432 127.657C69.3206 129.211 64.1287 130.043 58.7633 130.043V130.865V131.687C64.2999 131.687 69.6586 130.829 74.7382 129.225L74.4907 128.441ZM72.4401 127.112L71.9931 127.802L74.0437 129.131L74.4907 128.441L74.9377 127.751L72.8871 126.422L72.4401 127.112Z" fill="var(--stroke-0, #99A1AF)" fill-opacity="0.41"/>
</svg>
