<svg preserveAspectRatio="none" width="100%" height="100%" overflow="visible" style="display: block;" viewBox="0 0 11 11" fill="none" xmlns="http://www.w3.org/2000/svg">
<path id="Vector" d="M9.77887 7.42141L10.2356 7.21805C10.1475 7.02016 9.94204 6.90151 9.72661 6.92415L9.77887 7.42141ZM6.68023 10.2114L6.19116 10.1075C6.14612 10.3194 6.24264 10.5361 6.43023 10.6445L6.68023 10.2114ZM1.02107 3.27509L0.573446 3.05231L1.02107 3.27509ZM0.935345 7.5436L0.479109 7.74817H0.479109L0.935345 7.5436ZM9.94435 7.79308L10.3885 8.0227L9.94435 7.79308ZM4.75009 2.20573L4.4562 2.61024L6.54102 4.12495L6.83491 3.72044L7.1288 3.31593L5.04398 1.80122L4.75009 2.20573ZM6.83491 3.72044L6.35938 3.56593L5.56305 6.01678L6.03858 6.17129L6.51411 6.32579L7.31044 3.87495L6.83491 3.72044ZM6.03858 6.17129V5.67129H3.46161V6.17129V6.67129H6.03858V6.17129ZM3.46161 6.17129L3.93713 6.01678L3.1408 3.56593L2.66528 3.72044L2.18975 3.87495L2.98608 6.32579L3.46161 6.17129ZM2.66528 3.72044L2.95917 4.12495L5.04398 2.61024L4.75009 2.20573L4.4562 1.80122L2.37138 3.31593L2.66528 3.72044ZM9.77887 7.42141L9.72661 6.92415L7.16375 7.19352L7.21602 7.69078L7.26828 8.18804L9.83114 7.91868L9.77887 7.42141ZM7.21602 7.69078L6.72694 7.58683L6.19116 10.1075L6.68023 10.2114L7.16931 10.3154L7.70509 7.79474L7.21602 7.69078ZM4.75009 2.20573H5.25009V0.561652H4.75009H4.25009V2.20573H4.75009ZM6.83491 3.72044L6.96564 4.20305L8.71681 3.72868L8.58608 3.24607L8.45535 2.76346L6.70418 3.23783L6.83491 3.72044ZM6.03858 6.17129L5.64335 6.47754L6.82079 7.99704L7.21602 7.69078L7.61125 7.38452L6.43381 5.86503L6.03858 6.17129ZM3.46161 6.17129L3.05988 5.8736L1.93392 7.3931L2.33564 7.69078L2.73737 7.98847L3.86333 6.46897L3.46161 6.17129ZM9.04784 2.04316L8.58105 1.86398L8.11929 3.06688L8.58608 3.24607L9.05287 3.42525L9.51463 2.22235L9.04784 2.04316ZM8.58608 3.24607L8.34514 3.68418L10.0899 4.64373L10.3308 4.20562L10.5718 3.7675L8.82703 2.80795L8.58608 3.24607ZM5.5 0.5V1C7.58171 1 9.33444 2.41397 9.84779 4.33472L10.3308 4.20562L10.8139 4.07651C10.1866 1.72931 8.04587 0 5.5 0V0.5ZM10.3308 4.20562L9.84779 4.33472C9.94698 4.70583 10 5.09634 10 5.5H10.5H11C11 5.00839 10.9354 4.5311 10.8139 4.07651L10.3308 4.20562ZM2.66528 3.72044L2.79599 3.23783L1.15179 2.79248L1.02107 3.27509L0.89035 3.7577L2.53456 4.20305L2.66528 3.72044ZM0.5 5.5H1C1 4.77972 1.16886 4.10031 1.46869 3.49788L1.02107 3.27509L0.573446 3.05231C0.206262 3.79005 0 4.62166 0 5.5H0.5ZM1.02107 3.27509L1.46869 3.49788C2.20611 2.01626 3.73483 1 5.5 1V0.5V0C3.34095 0 1.47339 1.24413 0.573446 3.05231L1.02107 3.27509ZM0.935345 7.5436L0.88308 8.04086L2.28338 8.18804L2.33564 7.69078L2.38791 7.19352L0.987609 7.04634L0.935345 7.5436ZM0.935345 7.5436L1.39158 7.33903C1.14012 6.77821 1 6.15614 1 5.5H0.5H0C0 6.2999 0.171075 7.06119 0.479109 7.74817L0.935345 7.5436ZM5.5 10.5V10C4.58842 10 3.74154 9.72948 3.03343 9.26446L2.75897 9.6824L2.48451 10.1003C3.35068 10.6691 4.38746 11 5.5 11V10.5ZM2.75897 9.6824L3.03343 9.26446C2.31804 8.79466 1.74467 8.1265 1.39158 7.33903L0.935345 7.5436L0.479109 7.74817C0.910938 8.71124 1.6112 9.52682 2.48451 10.1003L2.75897 9.6824ZM2.33564 7.69078L1.84657 7.79474L2.2699 9.78635L2.75897 9.6824L3.24805 9.57844L2.82472 7.58683L2.33564 7.69078ZM9.94435 7.79308L10.4011 7.58971L10.2356 7.21805L9.77887 7.42141L9.3221 7.62478L9.48758 7.99644L9.94435 7.79308ZM10.5 5.5H10C10 6.24477 9.81946 6.94591 9.5002 7.56345L9.94435 7.79308L10.3885 8.0227C10.7794 7.26655 11 6.4083 11 5.5H10.5ZM9.94435 7.79308L9.5002 7.56345C8.93363 8.65932 7.92999 9.49233 6.72176 9.8323L6.85719 10.3136L6.99262 10.7949C8.47163 10.3788 9.69671 9.3608 10.3885 8.0227L9.94435 7.79308ZM6.85719 10.3136L6.72176 9.8323C6.33383 9.94145 5.92416 10 5.5 10V10.5V11C6.01662 11 6.5174 10.9286 6.99262 10.7949L6.85719 10.3136ZM6.68023 10.2114L6.43023 10.6445L6.60719 10.7466L6.85719 10.3136L7.10719 9.88059L6.93023 9.77843L6.68023 10.2114Z" fill="var(--stroke-0, #E5E1E1)"/>
</svg>
